<svg t="1589438458628" class="icon" viewBox="0 0 1024 1024" version="1.1" xmlns="http://www.w3.org/2000/svg" p-id="2246" width="28" height="28"><path d="M353 434c-35.9 0-65-29.1-65-65s29.1-65 65-65 65 29.1 65 65-29.1 65-65 65z m310.2 0c-35.9 0-65-29.1-65-65s29.1-65 65-65 65 29.1 65 65-29.1 65-65 65zM512 896c212.1 0 384-171.9 384-384S724.1 128 512 128 128 299.9 128 512s171.9 384 384 384z m0 64C264.6 960 64 759.4 64 512S264.6 64 512 64s448 200.6 448 448-200.6 448-448 448z m0-220c94.3 0 174.1-61.8 201.1-147H310.9c27 85.2 106.8 147 201.1 147z m275-211v0.1C787 680.9 663.9 804 512 804S237 680.9 237 529.1v-0.1h550z" p-id="2247" fill="#62B074"></path></svg>